<svg width="16" height="16" viewBox="0 0 16 16" fill="none" xmlns="http://www.w3.org/2000/svg">
<g opacity="0.4">
<path fill-rule="evenodd" clip-rule="evenodd" d="M9.83812 0.21398C8.08414 -0.200036 6.24176 -0.00971573 4.60946 0.754105C2.97716 1.51793 1.65057 2.8105 0.844614 4.42241C0.0386579 6.03433 -0.199447 7.87114 0.168876 9.63528C0.5372 11.3994 1.49037 12.9875 2.87397 14.1423C4.25756 15.297 5.99053 15.9508 7.79209 15.9977C9.59365 16.0446 11.3583 15.4818 12.8001 14.4006C13.021 14.2349 13.0658 13.9215 12.9001 13.7006C12.7344 13.4797 12.421 13.4349 12.2001 13.6006C10.9385 14.5467 9.39448 15.0391 7.8181 14.9981C6.24173 14.957 4.72538 14.385 3.51473 13.3745C2.30408 12.3641 1.47005 10.9745 1.14777 9.4309C0.825485 7.88728 1.03383 6.28006 1.73904 4.86963C2.44426 3.4592 3.60503 2.32819 5.0333 1.65985C6.46156 0.9915 8.07365 0.824969 9.60839 1.18723C11.1431 1.5495 12.5106 2.41934 13.4892 3.65582C14.4679 4.8923 15.0004 6.42298 15.0004 7.99988V7.9999V9.50006C15.0004 9.89794 14.8424 10.2795 14.561 10.5609C14.2797 10.8422 13.8981 11.0003 13.5002 11.0003C13.1023 11.0003 12.7207 10.8422 12.4394 10.5609C12.158 10.2795 12 9.89794 12 9.50006V7.99988C12 7.99644 11.9999 7.993 11.9999 7.98957C11.9975 6.93181 11.5763 5.91788 10.8282 5.16976C10.078 4.41954 9.06043 3.99807 7.99946 3.99807C7.20825 3.99807 6.43481 4.23269 5.77695 4.67226C5.11909 5.11183 4.60634 5.73661 4.30356 6.46759C4.00078 7.19857 3.92156 8.00292 4.07592 8.77892C4.23027 9.55492 4.61127 10.2677 5.17074 10.8272C5.73021 11.3867 6.44301 11.7677 7.21902 11.922C7.99502 12.0764 8.79937 11.9972 9.53035 11.6944C10.1831 11.424 10.7511 10.9862 11.1782 10.4272C11.3028 10.7392 11.4901 11.0259 11.7323 11.268C12.2011 11.7369 12.8371 12.0003 13.5002 12.0003C14.1633 12.0003 14.7992 11.7369 15.2681 11.268C15.737 10.7991 16.0004 10.1632 16.0004 9.50006V7.99988V7.99986C16.0003 6.19769 15.3918 4.44833 14.2733 3.03521C13.1549 1.62209 11.5921 0.627995 9.83812 0.21398ZM6.33252 5.50373C6.82594 5.17404 7.40603 4.99807 7.99946 4.99807C8.79522 4.99807 9.55838 5.31418 10.1211 5.87687C10.6838 6.43956 10.9999 7.20272 10.9999 7.99848C10.9999 8.59191 10.8239 9.172 10.4942 9.66542C10.1645 10.1588 9.69592 10.5434 9.14767 10.7705C8.59941 10.9976 7.99613 11.057 7.41411 10.9412C6.83208 10.8255 6.29746 10.5397 5.87785 10.1201C5.45823 9.70048 5.17247 9.16585 5.0567 8.58383C4.94093 8.00181 5.00035 7.39853 5.22744 6.85027C5.45454 6.30202 5.83911 5.83342 6.33252 5.50373Z" fill="url(#paint0_linear)"/>
</g>
<defs>
<linearGradient id="paint0_linear" x1="-1.9945" y1="-1.93783" x2="19.4456" y2="9.5966" gradientUnits="userSpaceOnUse">
<stop stop-color="#003A91"/>
<stop offset="1" stop-color="#003A91"/>
</linearGradient>
</defs>
</svg>
