<svg width="3084" height="715" viewBox="0 0 3084 715" fill="none" xmlns="http://www.w3.org/2000/svg">
<path d="M1561.96 714.696L1288.9 0H1126.08L853.024 714.696H1018.73L1079.97 547.549H1335.01L1398.41 714.696H1561.96Z" fill="#003A91"/>
<path d="M627.52 0H1127.52L1074.21 138.328H786.022V293.948H1678.67V421.469H786.022V713.976H627.52V0Z" fill="#00A236"/>
<path d="M215.417 0H20.1729L252.161 338.616L0 713.976H190.922L346.541 473.342L490.633 713.976H688.039L440.201 338.616L667.866 0H490.633L346.541 222.622L215.417 0Z" fill="#BA000F"/>
<path d="M1775.26 376.744H1789.05L1796.93 358.268H1833.16L1840.94 376.744H1855.17L1821.45 299.671H1808.97L1775.26 376.744ZM1801.86 346.352L1814.99 315.741L1828.24 346.352H1801.86Z" fill="black"/>
<path d="M1912.07 376.744H1940.64C1964.72 376.744 1981.36 360.017 1981.36 338.481V338.262C1981.36 316.725 1964.72 300.218 1940.64 300.218H1912.07V376.744ZM1940.64 312.462C1956.73 312.462 1967.24 323.503 1967.24 338.481V338.699C1967.24 353.676 1956.73 364.499 1940.64 364.499H1925.53V312.462H1940.64Z" fill="black"/>
<path d="M2003.94 376.744H2017.4V300.218H2003.94V376.744Z" fill="black"/>
<path d="M2068.56 377.29H2080.6L2112.35 300.218H2097.79L2074.8 359.033L2051.7 300.218H2036.82L2068.56 377.29Z" fill="black"/>
<path d="M2131.72 376.744H2145.19V300.218H2131.72V376.744Z" fill="black"/>
<path d="M2197.99 377.837C2214.08 377.837 2225.36 369.31 2225.36 354.988V354.77C2225.36 342.088 2217.04 336.294 2200.84 332.358C2186.06 328.86 2182.56 326.236 2182.56 320.333V320.114C2182.56 315.085 2187.15 311.04 2195.04 311.04C2202.04 311.04 2208.94 313.774 2215.83 318.912L2223.06 308.745C2215.29 302.513 2206.42 299.124 2195.25 299.124C2180.04 299.124 2169.09 308.198 2169.09 321.317V321.535C2169.09 335.638 2178.29 340.448 2194.6 344.384C2208.83 347.664 2211.89 350.615 2211.89 356.082V356.3C2211.89 361.985 2206.64 365.921 2198.32 365.921C2188.91 365.921 2181.46 362.313 2174.13 355.972L2166.03 365.593C2175.22 373.792 2186.28 377.837 2197.99 377.837Z" fill="black"/>
<path d="M2247.43 376.744H2260.89V300.218H2247.43V376.744Z" fill="black"/>
<path d="M2323.44 378.055C2346.98 378.055 2363.61 360.017 2363.61 338.481V338.262C2363.61 316.725 2347.19 298.906 2323.66 298.906C2300.12 298.906 2283.49 316.944 2283.49 338.481V338.699C2283.49 360.236 2299.91 378.055 2323.44 378.055ZM2323.66 365.593C2308.44 365.593 2297.61 353.348 2297.61 338.481V338.262C2297.61 323.394 2308.22 311.368 2323.44 311.368C2338.66 311.368 2349.49 323.613 2349.49 338.481V338.699C2349.49 353.567 2338.87 365.593 2323.66 365.593Z" fill="black"/>
<path d="M2385.35 376.744H2398.6V322.301L2440.85 376.744H2452.13V300.218H2438.88V353.13L2397.83 300.218H2385.35V376.744Z" fill="black"/>
<path d="M2552.16 378.055C2575.7 378.055 2592.33 360.017 2592.33 338.481V338.262C2592.33 316.725 2575.91 298.906 2552.38 298.906C2528.84 298.906 2512.21 316.944 2512.21 338.481V338.699C2512.21 360.236 2528.63 378.055 2552.16 378.055ZM2552.38 365.593C2537.16 365.593 2526.33 353.348 2526.33 338.481V338.262C2526.33 323.394 2536.95 311.368 2552.16 311.368C2567.38 311.368 2578.21 323.613 2578.21 338.481V338.699C2578.21 353.567 2567.6 365.593 2552.38 365.593Z" fill="black"/>
<path d="M2614.07 376.744H2627.54V345.587H2666.18V333.342H2627.54V312.462H2671.11V300.218H2614.07V376.744Z" fill="black"/>
<path d="M3011.87 372.502L2850.87 335.938L3084 299.574L3048.15 534.757L3011.96 372.426L3011.87 372.502Z" fill="#793690"/>
<path d="M2000.05 456.451L1898.9 607.076L1797.73 456.451H1780.09V711.143H1798.1V489.919L1897.81 636.548H1899.26L1998.97 489.919V711.143H2017.7V456.451H2000.05Z" fill="black"/>
<path d="M2231.55 622.676L2165.3 475.33L2098.7 622.676H2231.55ZM2156.67 454.581H2174.67L2292.04 711.104H2271.53L2239.48 639.788H2090.78L2058.76 711.104H2039.32L2156.67 454.581Z" fill="black"/>
<path d="M2422.74 588.476C2464.87 588.476 2496.19 567.01 2496.19 530.263V529.545C2496.19 495.347 2469.54 473.868 2423.83 473.868H2337.77V588.476H2422.74ZM2319.06 456.397H2424.92C2455.87 456.397 2480.69 466.221 2495.84 481.514C2507.7 493.503 2514.93 510.628 2514.93 528.815V529.545C2514.93 572.094 2483.58 596.494 2441.1 602.309L2524.27 711.103H2500.5L2420.23 605.588H2337.77V711.103H2319.06V456.397Z" fill="black"/>
<path d="M2548.59 456.397H2727.89V473.855H2567.31V573.913H2711.66V591.397H2567.31V693.619H2729.67V711.103H2548.59V456.397Z" fill="black"/>
<path d="M2970.6 456.397L2873.75 581.188L2974.21 711.103H2951.88L2862.23 593.561L2772.94 711.103H2751L2851.07 581.188L2754.59 456.397H2776.91L2862.95 568.828L2948.62 456.397H2970.6Z" fill="black"/>
</svg>
