<svg width="166" height="54" viewBox="0 0 166 54" fill="none" xmlns="http://www.w3.org/2000/svg">
<path d="M28.0034 20.2581L15.1263 39.709L2.24595 20.2581H0V53.1476H2.29274V24.58L14.9875 43.5148H15.1715L27.8663 24.58V53.1476H30.251V20.2581H28.0034Z" fill="white"/>
<path d="M57.4753 41.7234L49.0417 22.696L40.5629 41.7234H57.4753ZM47.9429 20.0166H50.234L65.1764 53.1425H62.5658L58.4853 43.9332H39.5545L35.4772 53.1425H33.0022L47.9429 20.0166Z" fill="white"/>
<path d="M81.8154 37.3071C87.1785 37.3071 91.167 34.535 91.167 29.7897V29.6971C91.167 25.2809 87.7739 22.5072 81.9541 22.5072H70.9987V37.3071H81.8154ZM68.6156 20.2512H82.0929C86.033 20.2512 89.1938 21.5198 91.1219 23.4946C92.6321 25.0428 93.5517 27.2541 93.5517 29.6028V29.6971C93.5517 35.1916 89.5616 38.3425 84.1533 39.0934L94.7409 53.1423H91.7156L81.4959 39.5168H70.9987V53.1423H68.6156V20.2512Z" fill="white"/>
<path d="M97.8377 20.2512H120.663V22.5056H100.221V35.4265H118.598V37.6842H100.221V50.8846H120.891V53.1423H97.8377V20.2512Z" fill="white"/>
<path d="M151.563 20.2512L139.233 36.3659L152.023 53.1423H149.18L137.766 37.9637L126.399 53.1423H123.606L136.346 36.3659L124.063 20.2512H126.904L137.858 34.7699L148.765 20.2512H151.563Z" fill="white"/>
<path d="M156.818 9.41742L136.32 4.69579L166 0L161.436 30.37L156.829 9.40758L156.818 9.41742Z" fill="white"/>
</svg>
