<svg width="26" height="32" viewBox="0 0 26 32" fill="none" xmlns="http://www.w3.org/2000/svg">
<path d="M13 0C6.33809 0 0.9375 5.40056 0.9375 12.0625C0.9375 14.2904 1.37358 16.5915 2.62499 18.25L13 32L23.375 18.25C24.5117 16.7436 25.0625 14.0805 25.0625 12.0625C25.0625 5.40056 19.6619 0 13 0ZM13 6.98632C15.8031 6.98632 18.0762 9.25941 18.0762 12.0625C18.0762 14.8656 15.8031 17.1387 13 17.1387C10.1969 17.1387 7.92385 14.8656 7.92385 12.0625C7.92385 9.25941 10.1969 6.98632 13 6.98632Z" fill="url(#paint0_linear)"/>
<defs>
<linearGradient id="paint0_linear" x1="-2.06975" y1="-3.87555" x2="33.7249" y2="10.6424" gradientUnits="userSpaceOnUse">
<stop stop-color="#793690"/>
<stop offset="1" stop-color="#0032B7"/>
</linearGradient>
</defs>
</svg>
