<svg version="1" xmlns="http://www.w3.org/2000/svg" width="933.333" height="933.333" viewBox="0 0 700.000000 700.000000"><path d="M689.6 1.7c-.1.1-2 .5-4.2.8-2.1.3-6.4 1-9.4 1.5s-7.1 1.2-9 1.4c-1.9.3-7.8 1.1-13 2-5.2.8-11.5 1.8-14 2.1-2.5.3-5.2.8-6 1-.8.2-3.7.6-6.5 1-2.7.3-5.7.8-6.5 1-.8.2-3.7.6-6.5 1-2.7.3-10.6 1.5-17.5 2.6s-17 2.7-22.5 3.5c-5.5.9-11.2 1.7-12.6 2-25.1 3.9-41.3 6.4-44.9 6.9-2.5.3-8.3 1.2-13 2-4.7.8-10.5 1.7-13 2-2.5.3-8.5 1.2-13.4 2.1-5 .8-10.8 1.7-13 2-2.3.2-5.3.7-6.8.9-6.5 1.1-45 7.1-51.3 8-2.3.3-5.2.7-6.5 1-1.3.3-4.2.7-6.5 1-5.6.8-21.2 3.3-32 5-4.9.8-10.8 1.7-13 2-4 .6-14.7 2.2-19.5 3-1.4.2-4.7.7-7.5 1-2.7.4-5.7.8-6.5 1-.8.2-2.8.6-4.5.9-7.2 1.1-17.3 2.6-20.5 3.1-1.9.2-4.6.7-6 .9-3.3.6-15.1 2.4-30.5 4.6-4.4.7-8.2 1.3-8.5 1.5-.3.2-3 .6-6 1-3 .3-6.8.9-8.5 1.1-1.6.3-4.1.7-5.5.9-8.8 1.3-16.8 2.5-18.5 2.9-1.1.2-4.2.7-6.8 1-2.7.4-5.6.9-6.5 1.1-1 .1-3.9.6-6.7.9-2.7.4-7.5 1.1-10.5 1.6s-6.8 1.1-8.5 1.4c-1.6.2-4.8.7-7 1.1-2.2.3-5.3.8-7 1-1.6.2-6.1.9-10 1.5-3.8.7-8.3 1.4-10 1.6-1.6.3-8.8 1.4-16 2.5-16.6 2.6-16.5 2.5-26 3.9-4.4.7-8.7 1.3-9.5 1.5-2.5.4-9.3 1.5-13.5 2-2.2.3-6.2 1-9 1.5-2.7.5-7 1.2-9.5 1.5-2.5.3-7 1-10 1.5s-7.1 1.1-9 1.4c-10.9 1.6-28.3 4.5-28.6 4.9-.2.2 9.2 2.5 20.9 5.1 11.6 2.6 25.7 5.8 31.2 7.1 5.5 1.3 11.1 2.6 12.5 2.8 1.4.3 10.8 2.4 21 4.7 10.2 2.3 19.6 4.4 21 4.6 1.4.3 4.1.9 6 1.4 3.4.9 42.3 9.7 46.5 10.5 2.5.6 23 5.1 31 7 13.1 3 20.1 4.6 22 5 3.2.6 59.5 13.3 68.8 15.5 4.7 1 9.9 2.2 11.5 2.5 1.7.3 5.7 1.2 8.9 2s6.9 1.6 8.3 1.9c1.4.3 12.6 2.8 25 5.6s25.2 5.7 28.5 6.4c3.3.8 22.4 5.1 42.5 9.6s37.2 8.3 38 8.5c10.7 2.4 37.4 8.6 37.6 8.8.2.2 2.1 8.6 4.4 18.7 3.6 16.6 4.7 21.4 8 35.5 2.5 11 6 26.3 6.4 28.5.2 1.4 1.2 5.6 2.1 9.5.9 3.8 1.9 8.1 2.1 9.5.3 1.4 1 4.3 1.6 6.5.5 2.2 1.2 4.9 1.4 6 .2 1.1.6 3.1.9 4.5.3 1.4.7 3.4.9 4.6.4 1.8 1.9 8.6 4.6 19.9 1.4 5.6 8.1 35.6 8.6 38 .2 1.1 2 9.2 4 18 4.3 18.8 4.5 19.9 7.3 33 1.2 5.5 2.6 11.8 3.2 14 .6 2.2 1.3 5.1 1.5 6.5.3 1.4.7 3.3 1 4.2.3 1 .7 3 1 4.4.3 1.4 1.2 5.6 2 9.3.9 3.6 1.8 7.7 2 9.1.3 1.4.7 3.3 1 4.2.3 1 .7 3 1 4.5.3 1.6.7 3.6 1 4.5.3.9.6 2.5.8 3.5.2 1 1.3 5.8 2.5 10.8 7.9 34.9 10.3 45.5 12.6 56 3.2 14.8 3 13.6 4.9 21.6.8 3.7 1.7 7.8 2 9 .2 1.3 3.2 14.5 6.6 29.4 3.4 14.8 6.4 28.1 6.6 29.5.4 2.1 2.9 12.9 3.8 16.5.2.5.6 3.1 1.1 5.8.4 2.6 1.1 4.9 1.5 5.2.4.2 1.3-3.5 2-8.3.8-4.8 1.5-9.4 1.6-10.2.2-.8.6-3.7.9-6.4.4-2.7.9-5.8 1.1-7 .2-1.2.7-3.9.9-6.1.3-2.2 1-6.5 1.5-9.5s1.2-7.3 1.5-9.5c.3-2.2 1-6.5 1.5-9.5s1.2-7.5 1.5-10c.6-4.5 3.2-21.3 4-25.9.2-1.3.7-4.5 1-7 .4-2.5 1.3-8.4 2-13.1.8-4.7 1.7-10.5 2-13 .3-2.5.8-5.2 1-6 .2-.8.7-3.5 1-6 .3-2.5.8-5.6 1-7 .2-1.4 1.1-7.2 2-13 .8-5.8 1.7-11.6 1.9-13 .9-4.9 1.7-10.6 2.2-14 .2-1.9 1.1-7.3 1.9-12 .8-4.7 1.7-10.1 1.9-12 .8-5.5 2.2-15.2 5-32.5 1.3-8.8 2.8-18.3 3.2-21 .3-2.8.8-5.7.9-6.7.2-.9.7-3.8 1.1-6.5.3-2.6.8-5.7 1-6.8.3-1.1.7-4 1-6.5.3-2.5.7-5.2.9-6 .3-.8.7-3.8 1-6.5.3-2.8.8-5.7 1-6.5.2-.8.7-3.5 1-6 .3-2.5 1-7 1.5-10s1.2-7.5 1.5-10c.3-2.5.8-5.2 1-6 .2-.8.7-3.5 1-6 .3-2.5.8-5.6 1-7 .2-1.4 1.1-7.2 2-13 .8-5.8 1.7-11.4 1.9-12.5.2-1.1.7-4.2 1-6.8.4-2.7.9-5.6 1.1-6.5.3-2.1 3.6-23 4-25.7 1-7.7 2.6-18.5 3-20.6.3-1.3.8-4.2 1.1-6.4.2-2.2.7-5.1.9-6.5 1-5.6 4.4-27.8 5-32 .6-4.6 3.2-21.4 4-26 .2-1.4.9-5.7 1.4-9.5 1.7-11.7 2.2-14.9 2.6-16.5.2-.8.7-4.2 1.1-7.5.3-3.3.8-6.2.9-6.5.2-.3.6-2.6 1-5 .3-2.5.8-5.6 1-7 .2-1.4 1.1-7.2 2-13 .8-5.8 1.7-11.4 1.9-12.5.2-1.1.7-4.3 1-7 .4-2.8 1.3-8.8 2.1-13.5.8-4.7 2.2-13.2 3-19 .9-5.8 1.7-11.6 2-13 1.4-9.3 1.8-11.7 2.1-13.5.3-1.1.6-3.8.9-6 .3-2.2.8-5.8 1.2-8 .4-2.2.7-4.5.8-5 .3-3.3 1.7-12.3 2.2-13.8.4-1.6-.1-1.8-4.7-1.5-2.8.2-5.3.4-5.4.5z"/></svg>