<svg width="193" height="55" viewBox="0 0 193 55" fill="none" xmlns="http://www.w3.org/2000/svg">
<path d="M132.256 7.9424L114.969 3.9603L140 0L136.151 25.6133L132.265 7.9341L132.256 7.9424Z" fill="#793690"/>
<path d="M23.6173 17.0852L12.7571 33.4895L1.89418 17.0852H0V44.8233H1.93364V20.7301L12.6401 36.6993H12.7952L23.5017 20.7301V44.8233H25.5129V17.0852H23.6173Z" fill="black"/>
<path d="M48.4731 35.1885L41.3604 19.1413L34.2097 35.1885H48.4731ZM40.4338 16.8815H42.366L54.968 44.819H52.7663L49.325 37.0521H33.3592L29.9206 44.819H27.8332L40.4338 16.8815Z" fill="black"/>
<path d="M69.0009 31.4638C73.5241 31.4638 76.8879 29.1259 76.8879 25.1239V25.0458C76.8879 21.3213 74.0262 18.982 69.118 18.982H59.8784V31.4638H69.0009ZM57.8686 17.0793H69.235C72.5579 17.0793 75.2237 18.1492 76.8498 19.8148C78.1234 21.1204 78.8991 22.9855 78.8991 24.9662V25.0458C78.8991 29.6797 75.5339 32.337 70.9727 32.9703L79.9019 44.8189H77.3505L68.7315 33.3274H59.8784V44.8189H57.8686V17.0793Z" fill="black"/>
<path d="M82.5137 17.0793H101.764V18.9806H84.5236V29.8778H100.023V31.7819H84.5236V42.9148H101.956V44.8189H82.5137V17.0793Z" fill="black"/>
<path d="M127.824 17.0793L117.425 30.6701L128.212 44.8189H125.814L116.188 32.0176L106.602 44.8189H104.246L114.991 30.6701L104.632 17.0793H107.028L116.266 29.324L125.465 17.0793H127.824Z" fill="black"/>

</svg>
