<svg width="161" height="107" viewBox="0 0 161 107" fill="none" xmlns="http://www.w3.org/2000/svg">
<path d="M149.148 69.1189L123.122 0.998779H107.603L81.5773 69.1189H97.3713L103.208 53.1876H127.517L133.56 69.1189H149.148Z" fill="#003A91"/>
<path d="M60.0837 0.998779H107.74L102.659 14.1833H75.191V29.0159H160.273V41.1705H75.191V69.0503H60.0837V0.998779Z" fill="#00A236"/>
<path d="M20.8048 0.998779H2.19533L24.3069 33.2735L0.272583 69.0503H18.47L33.3026 46.1147L47.0365 69.0503H65.852L42.2297 33.2735L63.9292 0.998779H47.0365L33.3026 22.2177L20.8048 0.998779Z" fill="#BA000F"/>
<path d="M56.6118 83.3H57.588L58.1459 81.9906H60.7105L61.2606 83.3H62.2678L59.8814 77.8377H58.9982L56.6118 83.3ZM58.4945 81.1461L59.4243 78.9766L60.3618 81.1461H58.4945Z" fill="black"/>
<path d="M66.2955 83.3H68.3177C70.0223 83.3 71.2 82.1146 71.2 80.5882V80.5727C71.2 79.0464 70.0223 77.8764 68.3177 77.8764H66.2955V83.3ZM68.3177 78.7442C69.4567 78.7442 70.2005 79.5267 70.2005 80.5882V80.6037C70.2005 81.6652 69.4567 82.4322 68.3177 82.4322H67.2485V78.7442H68.3177Z" fill="black"/>
<path d="M72.7978 83.3H73.7508V77.8764H72.7978V83.3Z" fill="black"/>
<path d="M77.3721 83.3387H78.2243L80.4712 77.8764H79.4408L77.8137 82.0448L76.1789 77.8764H75.1251L77.3721 83.3387Z" fill="black"/>
<path d="M81.8426 83.3H82.7956V77.8764H81.8426V83.3Z" fill="black"/>
<path d="M86.5331 83.3775C87.672 83.3775 88.4701 82.7731 88.4701 81.7581V81.7426C88.4701 80.8439 87.8812 80.4332 86.7345 80.1543C85.6886 79.9064 85.4406 79.7204 85.4406 79.302V79.2865C85.4406 78.9301 85.766 78.6435 86.3239 78.6435C86.8198 78.6435 87.3079 78.8372 87.796 79.2013L88.3074 78.4808C87.7573 78.0391 87.1297 77.7989 86.3394 77.7989C85.2624 77.7989 84.4876 78.442 84.4876 79.3718V79.3873C84.4876 80.3868 85.1385 80.7277 86.2929 81.0066C87.3001 81.239 87.5171 81.4482 87.5171 81.8356V81.8511C87.5171 82.254 87.1452 82.5329 86.5563 82.5329C85.89 82.5329 85.3632 82.2773 84.844 81.8279L84.2707 82.5097C84.9215 83.0908 85.7041 83.3775 86.5331 83.3775Z" fill="black"/>
<path d="M90.0324 83.3H90.9854V77.8764H90.0324V83.3Z" fill="black"/>
<path d="M95.4125 83.393C97.0783 83.393 98.256 82.1146 98.256 80.5882V80.5727C98.256 79.0464 97.0938 77.7834 95.428 77.7834C93.7622 77.7834 92.5845 79.0619 92.5845 80.5882V80.6037C92.5845 82.13 93.7467 83.393 95.4125 83.393ZM95.428 82.5097C94.351 82.5097 93.584 81.6419 93.584 80.5882V80.5727C93.584 79.519 94.3355 78.6667 95.4125 78.6667C96.4894 78.6667 97.2565 79.5345 97.2565 80.5882V80.6037C97.2565 81.6574 96.5049 82.5097 95.428 82.5097Z" fill="black"/>
<path d="M99.7948 83.3H100.732V79.4415L103.723 83.3H104.521V77.8764H103.584V81.6264L100.678 77.8764H99.7948V83.3Z" fill="black"/>
<path d="M111.601 83.393C113.267 83.393 114.445 82.1146 114.445 80.5882V80.5727C114.445 79.0464 113.283 77.7834 111.617 77.7834C109.951 77.7834 108.773 79.0619 108.773 80.5882V80.6037C108.773 82.13 109.936 83.393 111.601 83.393ZM111.617 82.5097C110.54 82.5097 109.773 81.6419 109.773 80.5882V80.5727C109.773 79.519 110.524 78.6667 111.601 78.6667C112.678 78.6667 113.445 79.5345 113.445 80.5882V80.6037C113.445 81.6574 112.694 82.5097 111.617 82.5097Z" fill="black"/>
<path d="M115.984 83.3H116.937V81.0918H119.672V80.2241H116.937V78.7442H120.02V77.8764H115.984V83.3Z" fill="black"/>
<path d="M144.14 82.9993L132.744 80.408L149.245 77.8308L146.708 94.4987L144.146 82.9939L144.14 82.9993Z" fill="#793690"/>
<path d="M72.5228 88.9492L65.3634 99.6243L58.2023 88.9492H56.9536V107H58.2283V91.3212L65.2863 101.713H65.3886L72.4465 91.3212V107H73.7724V88.9492H72.5228Z" fill="black"/>
<path d="M88.9084 100.73L84.2195 90.2872L79.5055 100.73H88.9084ZM83.6086 88.8167H84.8824L93.19 106.997H91.7386L89.4699 101.943H78.9449L76.678 106.997H75.302L83.6086 88.8167Z" fill="black"/>
<path d="M102.441 98.3061C105.423 98.3061 107.64 96.7847 107.64 94.1804V94.1295C107.64 91.7059 105.754 90.1836 102.518 90.1836H96.4271V98.3061H102.441ZM95.1021 88.9454H102.595C104.786 88.9454 106.543 89.6416 107.615 90.7255C108.455 91.5751 108.966 92.7888 108.966 94.0778V94.1295C108.966 97.1451 106.748 98.8743 103.741 99.2865L109.627 106.997H107.945L102.263 99.5188H96.4271V106.997H95.1021V88.9454Z" fill="black"/>
<path d="M111.349 88.9454H124.039V90.1826H112.674V97.274H122.891V98.5131H112.674V105.758H124.166V106.997H111.349V88.9454Z" fill="black"/>
<path d="M141.219 88.9454L134.364 97.7896L141.474 106.997H139.894L133.548 98.6665L127.228 106.997H125.676L132.759 97.7896L125.929 88.9454H127.509L133.599 96.9136L139.663 88.9454H141.219Z" fill="black"/>
</svg>
