<svg width="1442" height="615" viewBox="0 0 1442 615" fill="none" xmlns="http://www.w3.org/2000/svg">
<g opacity="0.16">
<path d="M967.064 0.998779H1106.71L1203.04 253.132M870.718 253.177L921.778 119.53M828.943 362.518L732.877 613.964H874.996L927.518 470.609H1146.26L1200.63 613.964H1340.9L1244.88 362.651" stroke="#1C1B4A"/>
<path d="M968.3 0.998779H539.471M539.471 613.346H675.411V362.475H828.744M921.794 119.637H675.411V253.106H870.702M539.471 52.3444V535.205M1202.99 253.106H1441V362.475H1244.45" stroke="#1C1B4A"/>
<path d="M574.074 0.998779H422.068L298.487 191.933L186.027 0.998779H18.574L217.541 291.416L1.27258 613.346H165.018L298.487 406.965L422.068 613.346H591.375M539.496 534.773L378.815 291.416L539.507 52.4117" stroke="#1C1B4A"/>
</g>
</svg>
